<svg xmlns="http://www.w3.org/2000/svg" viewBox="0 0 31 31"><path d="M1 1h7v7h-7zM11 1h6v1h1v1h-1v2h1v1h-2v-1h-1v-1h1v-1h-1v1h-1v-1h-1v1h1v4h-1v-1h-1v-2h-1v-1h1v-1h-1v1h-1v2h1v1h-1v1h1v1h1v1h-2v-1h-1v-6h1v-1h1zM19 1h3v2h-1v-1h-1v1h-1zM23 1h7v7h-7zM2 2v5h5v-5zM24 2v5h5v-5zM3 3h3v3h-3zM25 3h3v3h-3zM18 4h2v1h-2zM21 4h1v1h-1zM20 5h1v1h-1zM18 6h1v1h-1zM21 6h1v2h-1zM11 7h1v1h-1zM15 7h1v2h-1zM17 7h1v2h1v1h-2zM19 7h1v1h1v1h-2zM1 9h1v2h3v1h-2v1h-2zM3 9h5v1h-2v1h-1v-1h-2zM23 9h5v1h-2v1h3v1h-3v1h-3v-1h1v-1h1v-1h-1v1h-1zM13 10h4v1h3v1h-3v2h1v1h-2v-1h-1v-1h1v-1h-1v1h-3v1h-1v-1h-2v1h-2v1h2v-1h2v2h-1v2h-3v-1h1v-1h-2v-1h-1v1h-1v1h-1v-2h1v-1h1v-1h1v-1h1v1h1v-1h-1v-1h2v1h2v-1h2v1h1v-1h-1zM20 10h2v2h-1v-1h-1zM29 10h1v1h-1zM29 12h1v1h-1zM18 13h1v1h-1zM20 13h3v1h-2v1h-1v1h-1v-2h1zM26 13h3v1h1v1h-3v-1h-1zM2 14h1v1h-1zM12 14h1v1h-1zM23 14h3v3h-2v-1h-1v2h-2v-1h-1v-1h1v-1h2zM1 16h1v1h1v2h-1v3h-1zM11 16h3v2h3v2h-2v1h-2v-3h-2zM15 16h1v1h-1zM17 16h1v1h-1zM18 17h1v1h2v1h-2v1h-1zM26 17h3v1h1v1h-2v-1h-2zM4 18h1v1h-1zM6 18h1v1h3v-1h1v1h1v2h-1v-1h-5zM23 18h3v1h2v1h-2v1h2v1h-2v1h1v2h-1v1h-1v1h-1v-1h-2v1h-1v-2h-1v3h-2v-1h1v-1h-1v-1h1v-3h1v1h1v-2h1v-1h1v1h1v-1h1v-1h-2zM3 19h1v1h-1zM21 19h1v1h-1zM4 20h2v2h-3v-1h1zM17 20h1v1h-1zM19 20h1v1h-1zM7 21h1v1h-1zM10 21h1v2h-2v-1h1zM15 21h1v1h-1zM12 22h2v1h-1v2h-1v-1h-1v-1h1zM17 22h1v2h-1v2h-1v-1h-1v-1h1v-1h1zM22 22v3h3v-3zM29 22h1v1h-1zM1 23h7v7h-7zM23 23h1v1h-1zM28 23h1v3h1v1h-1v2h-1v-3h-1v-1h1zM2 24v5h5v-5zM9 24h1v2h3v1h1v1h1v1h2v1h-4v-1h-1v-1h-3zM3 25h3v3h-3zM13 25h1v1h-1zM14 26h2v1h-2zM17 26h1v1h-1zM26 26h1v2h-1v1h2v1h-3v-3h1zM16 27h1v1h-1zM22 27h2v1h-1v1h1v1h-2v-1h-1v-1h1zM9 29h1v1h-1zM11 29h1v1h-1zM18 29h1v1h-1zM20 29h1v1h-1z"/></svg>