<svg xmlns="http://www.w3.org/2000/svg" viewBox="0 0 31 31"><path d="M1 1h7v7h-7zM9 1h4v1h1v-1h3v1h-2v1h-1v1h-1v-1h-2v-1h-1v1h-1zM20 1h1v1h-1zM23 1h7v7h-7zM2 2v5h5v-5zM17 2h1v2h-1zM21 2h1v2h-1zM24 2v5h5v-5zM3 3h3v3h-3zM10 3h1v1h2v2h-3v-1h-1v-1h1zM19 3h1v2h1v2h-1v-1h-2v2h1v1h1v-1h1v2h2v-1h1v1h2v-1h1v2h-5v1h-1v-1h-1v-1h-2v-1h-1v2h-2v1h-1v-1h-1v-1h1v-1h1v1h1v-2h1v-1h-1v-1h1v-1h1v-1h1zM25 3h3v3h-3zM15 4h2v1h-1v1h-1zM14 6h1v1h-1zM9 7h1v2h-1zM11 7h1v1h1v-1h1v2h-2v1h-1zM15 7h1v1h-1zM19 7h1v1h-1zM21 7h1v1h-1zM1 9h1v2h2v1h-1v1h-1v2h-1zM3 9h2v1h1v1h-2v-1h-1zM6 9h3v2h-1v-1h-2zM28 9h2v2h-1v-1h-1zM10 10h1v1h1v1h-1v1h-1zM7 11h1v1h-1zM17 11h1v2h-1zM27 11h1v1h-1zM4 12h2v1h-1v1h-2v-1h1zM12 12h2v2h-1v1h2v1h-3zM19 12h1v1h-1zM22 12h2v1h-1v1h1v1h-3v2h-1v-3h1v-1h1zM26 12h1v1h1v-1h1v2h-1v1h-2zM6 13h2v1h-1v1h-1zM15 13h2v1h-1v1h-1zM18 13h1v2h-1v2h-1v-1h-1v-1h1v-1h1zM29 14h1v2h-2v-1h1zM2 15h4v3h1v1h2v1h-3v-1h-1v-3h-1v1h-1v-1h-1zM7 15h1v1h-1zM9 15h2v1h-2zM24 15h2v2h1v1h-2v1h-1v-2h1v-1h-1zM1 16h1v2h-1zM8 16h1v2h-2v-1h1zM15 16h1v1h1v1h-1v1h1v1h1v-1h-1v-1h2v3h-1v2h1v1h-1v1h-1v-3h-3v-2h-1v-2h-2v1h-1v-2h4v2h1zM19 17h1v1h-1zM21 17h1v1h1v2h-1v-1h-1zM3 18h1v1h-1zM1 19h1v1h-1zM4 19h1v1h1v1h-1v1h-3v-1h1v-1h1zM25 19h1v1h-1zM27 19h1v1h1v1h1v2h-1v-1h-1v2h-1v1h2v1h-1v2h-1v-1h-2v-1h-3v1h-2v-1h1v-2h-1v-1h1v-1h-1v1h-1v-2h1v-1h2v1h4v2h1zM10 20h1v1h-1zM12 20h1v2h-2v-1h1zM7 21h2v1h-2zM9 22h1v1h1v4h-1v1h-1v-2h1v-1h-1zM13 22h1v1h-1zM22 22v3h3v-3zM1 23h7v7h-7zM15 23h1v2h-2v-1h1zM23 23h1v1h-1zM2 24v5h5v-5zM12 24h1v1h-1zM29 24h1v1h-1zM3 25h3v3h-3zM16 25h1v1h1v-1h2v1h-1v2h-2v-1h-1zM12 26h3v2h-1v1h-1v1h-2v-2h2v-1h-1zM29 26h1v2h-1zM22 27h1v1h-1zM15 28h1v1h-1zM21 28h1v1h2v-1h2v1h1v1h-8v-1h2zM28 28h1v2h-1zM9 29h1v1h-1z"/></svg>