<svg xmlns="http://www.w3.org/2000/svg" viewBox="0 0 31 31"><path d="M1 1h7v7h-7zM9 1h1v1h1v1h-2zM11 1h2v2h-1v-1h-1zM14 1h3v1h-2v1h-1zM19 1h3v2h-1v-1h-1v1h-1zM23 1h7v7h-7zM2 2v5h5v-5zM17 2h1v2h-1zM24 2v5h5v-5zM3 3h3v3h-3zM11 3h1v1h2v1h-1v2h-1v-1h-1zM20 3h1v1h1v2h-1v1h-1v1h-1v-2h1zM25 3h3v3h-3zM9 4h1v1h-1zM15 4h2v1h-1v1h-1zM18 4h1v2h-1v2h1v1h1v-1h1v2h2v-1h1v1h2v-1h1v2h-1v1h-2v-1h-1v1h-1v-1h-2v-1h-2v-1h-1v2h-2v1h-1v-2h-1v-1h-1v-1h1v-1h1v2h1v1h1v-2h1v-1h-1v-1h1v-1h1zM10 6h1v1h-1zM14 6h1v1h-1zM9 7h1v1h1v1h1v2h-1v-1h-1v-1h-1zM11 7h1v1h-1zM15 7h1v1h-1zM21 7h1v1h-1zM1 9h1v1h-1zM3 9h2v1h-1v1h4v1h-1v1h1v1h-1v1h-1v1h-3v-1h-1v-1h-1v-2h1v1h1v1h1v1h1v-1h1v-2h-1v2h-1v-2h-1v-1h-1v-1h1zM6 9h3v1h-3zM28 9h2v2h-1v1h-2v-1h1zM10 11h1v1h-1zM12 11h1v1h-1zM17 11h1v2h-1zM9 12h1v1h-1zM11 12h1v1h-1zM19 12h2v1h-2zM23 12h1v1h-1zM26 12h1v1h1v1h-2zM13 13h1v1h-1zM15 13h2v1h-1v1h-1zM18 13h1v2h-1v2h-1v-1h-1v-1h1v-1h1zM21 13h2v1h1v-1h1v2h2v1h-1v1h1v1h1v1h-2v-1h-1v1h-1v-2h1v-1h-1v1h-1v-2h-2v1h-1v-2h1zM8 14h1v1h-1zM12 14h1v1h2v1h-1v1h-1v-1h-2v-1h1zM28 14h2v3h-2v-1h1v-1h-1zM7 15h1v1h-1zM2 16h1v1h-1zM9 16h1v1h-1zM15 16h1v1h1v1h-1v1h1v1h1v-1h-1v-1h2v3h-1v2h1v1h-1v1h-1v-3h-3v-3h1zM21 16h1v2h1v1h-2zM1 17h1v1h-1zM4 17h1v1h-1zM6 17h2v1h-1v1h2v1h-3v1h-1v-2h1zM10 17h2v1h2v1h-2v1h-2v-1h1v-1h-1zM19 17h1v1h-1zM3 18h1v1h-1zM9 18h1v1h-1zM1 19h1v1h-1zM25 19h1v1h-1zM9 20h1v1h2v1h-1v1h1v1h1v1h-2v2h1v-1h3v3h1v1h-3v-1h1v-2h-1v2h-1v1h-1v-1h-1v-1h-1v-2h1v-1h-1v-3h-2v-1h2zM20 20h1v1h1v-1h2v1h2v1h1v2h-1v3h-1v3h-1v-4h-1v1h-2v1h1v1h1v1h-2v-1h-1v-3h1v-1h-1v-2h-1v-2h1zM27 20h2v1h1v2h-1v-1h-2zM2 21h3v1h-3zM13 22h1v2h-1zM22 22v3h3v-3zM1 23h7v7h-7zM15 23h1v2h-2v-1h1zM23 23h1v1h-1zM2 24v5h5v-5zM29 24h1v1h-1zM3 25h3v3h-3zM16 25h1v1h1v-1h2v1h-1v2h-2v-1h-1zM27 25h2v1h-1v2h-1v1h-1v-2h1zM29 26h1v2h-1zM28 28h1v2h-1zM9 29h1v1h-1zM19 29h1v1h-1z"/></svg>