<svg xmlns="http://www.w3.org/2000/svg" viewBox="0 0 31 31"><path d="M1 1h7v7h-7zM11 1h2v2h-1v1h-1zM14 1h3v1h1v1h-1v2h1v1h-2v-1h-1v-1h1v-1h-1v1h-1zM20 1h1v1h-1zM23 1h7v7h-7zM2 2v5h5v-5zM19 2h1v1h1v1h-1v1h-2v-1h1zM24 2v5h5v-5zM3 3h3v3h-3zM9 3h1v1h1v1h-1v1h2v4h5v1h3v1h-3v2h1v1h-2v-1h-1v-1h1v-1h-1v1h-2v-1h1v-1h-2v3h2v1h-1v2h1v1h3v2h-2v1h-2v1h-1v-1h-1v-1h-1v-2h1v1h1v-1h-1v-1h1v-1h-3v-1h2v-3h-1v-1h1v-2h-2zM25 3h3v3h-3zM21 4h1v1h-1zM12 5h2v1h-2zM20 5h1v1h-1zM18 6h1v1h-1zM21 6h1v2h-1zM10 7v1h1v-1zM13 7h1v2h-1zM15 7h1v2h-1zM17 7h1v2h1v1h-2zM19 7h1v1h-1zM20 8h1v1h-1zM1 9h1v2h-1zM3 9h5v1h-1v1h-1v1h-1v-1h-1v-1h-1zM23 9h5v1h-2v2h1v1h-3v-1h1v-2h-1v2h-1v2h-2v-1h-1v-1h1v-1h-1v-1h2v1h1zM29 10h1v1h-1zM3 11h1v1h-1zM7 11h2v2h-1v-1h-1zM27 11h2v1h-2zM6 12h1v1h-1zM29 12h1v1h-1zM2 13h2v1h-2zM5 13h1v3h-1v1h-3v5h-1v-6h2v-1h1v-1h1zM7 13h1v1h-1zM9 13h1v1h-1zM18 13h1v1h-1zM27 13h1v1h-1zM1 14h1v1h-1zM19 14h2v1h-1v1h-1zM23 14h3v1h3v1h1v1h-1v1h1v1h-3v-1h-1v-1h2v-1h-3v-1h-2zM29 14h1v1h-1zM7 15h1v1h-1zM21 15h1v1h-1zM15 16h1v1h-1zM17 16h1v1h-1zM23 16h1v1h-1zM5 17h3v1h-3zM9 17h1v1h-1zM18 17h1v1h2v1h-2v1h-1zM21 17h2v1h-2zM24 17h1v1h-1zM3 18h2v1h-2zM8 18h1v2h-2v1h-1v-2h2zM23 18h1v1h-1zM25 18h1v1h1v1h-1v1h2v1h-1v1h-1v1h1v1h-1v1h-3v1h-2v-3h-1v3h1v1h2v-1h3v-1h1v3h-1v-1h-2v1h-4v-1h-2v-1h1v-1h-1v-1h1v-3h2v-1h4v-1h-1v-1h1zM13 19v1h1v-1zM21 19h2v1h-2zM4 20h1v1h-1zM9 20h1v2h1v1h-2zM17 20h1v1h-1zM19 20h1v1h-1zM7 21h1v1h-1zM15 21h1v1h-1zM17 22h1v2h-1v2h-1v-1h-1v-1h1v-1h1zM22 22v3h3v-3zM29 22h1v1h-1zM1 23h7v7h-7zM23 23h1v1h-1zM28 23h1v3h1v1h-1v2h-1v-3h-1v-1h1zM2 24v5h5v-5zM9 24h1v3h2v-1h-1v-1h2v2h1v2h3v1h-4v-1h-1v1h-1v-2h-2zM13 24h1v1h-1zM3 25h3v3h-3zM15 26h1v1h-1zM17 26h1v1h-1zM16 27h1v1h-1zM9 29h1v1h-1zM18 29h1v1h-1zM25 29h1v1h-1zM27 29h1v1h-1z"/></svg>