<svg xmlns="http://www.w3.org/2000/svg" viewBox="0 0 31 31"><path d="M1 1h7v7h-7zM14 1h3v1h1v1h-1v2h1v-1h1v-2h1v1h1v1h-1v1h-1v1h-3v-1h-1v-1h1v-1h-1v1h-1v-1h-1v1h-1v4h1v1h-1v2h1v1h-2v-1h-2v-1h1v-1h1v-2h-1v2h-1v-6h1v3h1v-3h1v-1h2zM20 1h1v1h-1zM23 1h7v7h-7zM2 2v5h5v-5zM24 2v5h5v-5zM3 3h3v3h-3zM25 3h3v3h-3zM13 4h1v2h-1zM21 4h1v1h-1zM20 5h1v1h-1zM19 6h1v2h1v1h-2zM21 6h1v2h-1zM13 7h1v1h-1zM15 7h1v2h-1zM17 7h1v2h1v1h-2zM1 9h1v1h-1zM3 9h5v1h-1v1h2v1h-3v-2h-3zM13 9h1v1h-1zM23 9h5v1h-2v2h1v1h-3v-1h1v-2h-1v2h-1v2h-2v-1h-1v-1h1v-1h-1v-1h2v1h1zM2 10h1v1h-1zM14 10h3v1h3v1h-3v2h1v1h-2v-1h-1v-1h1v-1h-1v1h-1zM29 10h1v1h-1zM1 11h1v2h1v-1h1v-1h1v2h-1v1h-3zM27 11h2v1h-2zM10 12h1v1h-1zM29 12h1v1h-1zM7 13h3v2h-1v-1h-2zM11 13h3v3h-1v1h-3v-2h1v1h1v-1h-1zM18 13h1v1h-1zM27 13h1v1h-1zM5 14h2v1h1v1h-2v-1h-1zM19 14h2v1h-1v1h-1zM23 14h3v1h3v1h1v1h-1v1h1v1h-3v-1h-1v-1h2v-1h-3v-1h-2zM29 14h1v1h-1zM1 15h2v1h-1v1h1v1h-1v4h-1zM4 15h1v1h-1zM21 15h1v1h-1zM8 16h1v1h-1zM15 16h1v1h-1zM17 16h1v1h-1zM23 16h1v1h-1zM6 17h2v1h-1v1h1v1h-2v-1h-3v-1h3zM9 17h1v1h-1zM18 17h1v1h2v1h-2v1h-1zM21 17h2v1h-2zM24 17h1v1h-1zM8 18h1v1h-1zM13 18h4v2h-2v1h-1v-1h-1zM23 18h1v1h-1zM25 18h1v1h1v1h-1v1h2v1h-1v1h-1v1h1v1h-1v1h-3v1h-2v-3h-1v3h1v1h2v-1h3v1h-2v1h-4v-1h-2v-1h1v-1h-1v-1h1v-3h2v-1h4v-1h-1v-1h1zM21 19h2v1h-2zM3 20h1v1h-1zM8 20h1v2h-4v-1h3zM11 20h2v1h1v2h-1v-1h-3v-1h1zM17 20h1v1h-1zM19 20h1v1h-1zM15 21h1v1h-1zM9 22h1v1h-1zM17 22h1v2h-1v2h-1v-1h-1v-1h1v-1h1zM22 22v3h3v-3zM29 22h1v1h-1zM1 23h7v7h-7zM11 23h2v2h1v2h-1v1h-2v-1h-1v1h-1v-4h1v1h1zM23 23h1v1h-1zM27 23h2v3h1v1h-1v2h-1v-1h-1v-1h1v-1h-1v-1h1v-1h-1zM2 24v5h5v-5zM3 25h3v3h-3zM15 26h1v1h1v1h-1v1h1v1h-3v-1h-1v-1h2zM17 26h1v1h-1zM10 28h1v1h-1zM26 28h1v1h-1zM9 29h1v1h-1zM11 29h2v1h-2zM18 29h1v1h-1zM25 29h1v1h-1zM27 29h1v1h-1z"/></svg>