<svg xmlns="http://www.w3.org/2000/svg" viewBox="0 0 31 31"><path d="M1 1h7v7h-7zM11 1h1v2h-1zM13 1h4v1h2v1h-2v2h1v1h-2v-1h-1v-1h1v-1h-1v1h-1v6h3v1h3v1h-3v2h1v1h-2v-1h-1v-1h1v-1h-1v1h-1v-2h-1v1h-1v-1h-1v-1h-1v-1h1v-2h1v1h1v-1h-1v-1h1v-1h-1v-2h1zM20 1h1v1h-1zM23 1h7v7h-7zM2 2v5h5v-5zM21 2h1v3h-1zM24 2v5h5v-5zM3 3h3v3h-3zM9 3h1v6h-1zM25 3h3v3h-3zM18 4h1v1h-1zM19 5h2v1h-2zM18 6h1v1h-1zM21 6h1v4h-1v-1h-2v-2h1v1h1zM15 7h1v2h-1zM17 7h1v2h1v1h-2zM1 9h1v1h-1zM3 9h5v1h-1v1h-1v1h-1v-2h-2zM23 9h5v1h-2v1h1v2h-1v-1h-2v-1h1v-1h-1v1h-1zM2 10h1v1h-1zM9 10h1v1h1v1h1v1h-2v-1h-1zM20 10h1v1h-1zM28 10h2v1h-2zM1 11h1v1h-1zM3 11h1v1h1v1h4v2h-1v-1h-1v1h-1v2h-1v-1h-1v-1h1v-1h-1v-1h-2v-1h1zM7 11h1v1h-1zM21 11h1v1h-1zM22 12h2v1h-1v1h-2v-1h1zM29 12h1v1h-1zM1 13h1v1h-1zM12 13h2v3h-1v-1h-2v1h1v1h1v1h-1v2h1v1h-2v-1h-1v-1h1v-2h-1v-3h2zM18 13h1v1h-1zM24 13h1v1h-1zM27 13h1v1h-1zM2 14h2v1h-1v1h1v2h-1v1h-1v3h-1v-4h1v-2h-1v-1h1zM19 14h2v1h-1v1h-1zM23 14h1v1h1v1h-3v-1h1zM25 14h1v1h-1zM29 14h1v1h-1zM7 15h1v1h-1zM26 15h3v1h1v1h-1v1h1v1h-2v-1h-2v-1h2v-1h-2zM15 16h1v1h-1zM17 16h1v1h-1zM21 16h1v1h1v1h-2zM25 16h1v1h-1zM6 17h2v1h-1v1h-1zM18 17h1v1h2v1h-2v1h-1zM24 17h1v1h-1zM8 18h1v2h-2v-1h1zM14 18h3v2h-2v1h-1zM23 18h1v1h-1zM25 18h1v1h1v1h-1v1h2v1h-2v3h2v-1h-1v-1h2v3h1v1h-1v2h-1v-1h-1v-1h1v-1h-3v1h-1v-1h-1v1h-1v-1h-1v-2h-1v2h1v2h2v1h1v-1h1v-1h1v1h1v1h-1v1h-4v-1h-2v-1h-2v-1h1v-1h-1v-1h1v-3h2v-1h1v-1h1v1h2v-1h-1v-1h1zM4 19h1v1h2v1h-2v1h-1v-1h-1v-1h1zM21 19h1v1h-1zM17 20h1v1h-1zM19 20h2v1h-2zM7 21h4v1h-1v1h-1v-1h-2zM13 21h1v1h-1zM15 21h1v1h-1zM11 22h2v1h1v4h-1v1h-1v1h-1v-1h-2v-4h1v3h2v-4h-1zM17 22h1v2h-1v2h-1v-1h-1v-1h1v-1h1zM22 22v3h3v-3zM29 22h1v1h-1zM1 23h7v7h-7zM23 23h1v1h-1zM2 24v5h5v-5zM3 25h3v3h-3zM15 26h1v1h-1zM17 26h1v1h-1zM16 27h1v1h-1zM23 27h1v1h-1zM9 29h2v1h-2zM12 29h1v1h-1zM14 29h1v1h-1zM16 29h1v1h-1zM18 29h1v1h-1zM27 29h1v1h-1z"/></svg>