<svg xmlns="http://www.w3.org/2000/svg" viewBox="0 0 31 31"><path d="M1 1h7v7h-7zM10 1h2v1h1v-1h4v1h3v1h1v-1h1v3h-1v-1h-1v1h-1v1h-3v-1h-1v-1h1v-1h-1v1h-1v1h-1v1h1v2h-1v-1h-1v2h-1v3h-1v1h1v2h-2v2h-1v-1h-1v-1h1v-1h1v-1h-1v-1h-1v-1h2v-1h1v-1h-1v-6h1v1h1v-1h-1zM20 1h1v1h-1zM23 1h7v7h-7zM2 2v5h5v-5zM24 2v5h5v-5zM3 3h3v3h-3zM12 3v1h1v-1zM17 3v2h1v-1h1v-1zM25 3h3v3h-3zM10 5v1h2v-1zM20 5h1v1h-1zM19 6h1v2h-1zM21 6h1v2h-1zM10 7v1h1v-1zM15 7h1v2h-1zM17 7h1v2h1v1h-2zM1 9h1v1h-1zM3 9h5v1h-3v1h-1v-1h-1zM12 9h1v1h4v1h3v1h-3v2h1v1h-2v-1h-1v-1h1v-1h-1v1h-4v-1h1zM21 9h1v1h-1zM23 9h5v1h-2v1h1v2h-2v-3h-1v1h-1zM2 10h1v1h1v1h-2v1h-1v-2h1zM20 10h1v1h-1zM28 10h2v1h-2zM13 11v1h1v-1zM21 11h1v1h-1zM4 12h1v1h-1zM6 12h1v1h1v1h-2v1h-1v-2h1zM22 12h2v1h-1v1h-2v1h-1v1h-1v-2h1v-1h2zM29 12h1v1h-1zM2 13h1v1h-1zM18 13h1v1h-1zM24 13h1v1h-1zM27 13h1v1h-1zM12 14h1v1h1v3h-1v-1h-2v-1h1zM23 14h1v1h-1zM25 14h1v1h-1zM29 14h1v1h-1zM1 15h2v3h1v-2h1v1h3v1h-3v1h-3v3h-1v-4h1v-1h-1zM22 15h1v1h-1zM26 15h3v1h1v1h-1v1h1v1h-2v-1h-2v-1h2v-1h-2zM15 16h1v1h-1zM17 16h1v1h-1zM20 16h2v1h-2zM25 16h1v1h-1zM9 17h2v1h1v1h-1v1h-4v-1h2zM18 17h1v1h3v1h-3v1h-1zM22 17h1v1h-1zM24 17h1v1h-1zM14 18h3v2h-2v1h-2v1h1v1h-5v-2h2v-1h1v-1h2zM23 18h1v1h-1zM25 18h1v3h2v1h-1v1h-1v1h1v1h-1v1h-3v1h-3v1h-2v-1h1v-1h-1v-1h1v-3h1v-1h2v-1h1v1h1v-2h1zM5 19h1v1h1v1h-2zM27 19h1v1h-1zM3 20h1v2h-1zM17 20h1v1h-1zM19 20h1v1h-1zM7 21h1v1h-1zM15 21h1v1h-1zM17 22h1v2h-1v2h-1v-1h-1v-1h1v-1h1zM22 22v3h3v-3zM29 22h1v1h-1zM1 23h7v7h-7zM23 23h1v1h-1zM28 23h1v3h1v1h-1v2h-1v-1h-1v-1h1v-1h-1v-1h1zM2 24v5h5v-5zM9 24h1v3h1v-2h1v2h1v-2h1v2h1v-1h1v1h1v1h-1v1h-2v1h-2v-2h-1v1h-1v-1h-1zM20 24v2h1v-2zM3 25h3v3h-3zM17 26h1v1h-1zM23 27h3v1h-3zM21 28h2v1h1v1h-2v-1h-1zM26 28h1v1h-1zM9 29h1v1h-1zM16 29h1v1h-1zM18 29h1v1h-1zM20 29h1v1h-1zM25 29h1v1h-1zM27 29h1v1h-1z"/></svg>