<svg xmlns="http://www.w3.org/2000/svg" viewBox="0 0 31 31"><path d="M1 1h7v7h-7zM12 1h5v1h3v1h-3v2h1v1h-2v-1h-1v-1h1v-1h-1v1h-2v-2h-1zM20 1h1v1h-1zM23 1h7v7h-7zM2 2v5h5v-5zM11 2h1v2h-1zM24 2v5h5v-5zM3 3h3v3h-3zM9 3h1v2h1v1h1v2h-1v-1h-1v1h1v1h1v2h-1v-1h-1v-1h-1zM20 3h2v1h-2zM25 3h3v3h-3zM12 4h1v1h1v1h-2zM18 4h2v1h-2zM20 5h2v1h-2zM18 6h1v1h-1zM13 7h1v3h3v1h3v1h-3v2h1v1h-2v-1h-1v-1h1v-1h-1v1h-5v-2h1v1h2zM15 7h1v2h-1zM17 7h1v2h1v1h-2zM19 7h1v1h-1zM21 7h1v1h-1zM20 8h1v1h-1zM1 9h1v1h-1zM3 9h5v1h-3v1h-1v-1h-1zM23 9h5v1h-2v1h-1v-1h-1v1h-1zM2 10h1v2h-1zM20 10h2v3h-1v-2h-1zM28 10h2v1h-2zM5 11h1v1h1v1h1v1h-2v-1h-3v-1h2zM7 11h2v1h-2zM24 11h1v1h1v-1h1v2h-2v1h-1zM29 12h1v1h-1zM9 13h1v1h-1zM18 13h1v1h-1zM27 13h1v1h-1zM4 14h2v1h-1v1h1v1h-1v3h1v1h-1v1h-2v-2h1v-4h-1v1h-2v-1h1v-1h2zM8 14h1v1h-1zM10 14h1v1h-1zM13 14h1v2h-1zM19 14h5v1h-1v1h-2v-1h-1v1h-1zM25 14h1v1h3v1h1v1h-1v1h1v1h-2v-1h-2v-1h2v-1h-2v1h-2v-2h1zM29 14h1v1h-1zM7 15h1v1h-1zM11 15h1v1h1v1h-2zM9 16h1v2h-1zM15 16h1v1h-1zM17 16h1v1h-1zM6 17h2v1h-2zM18 17h1v1h3v2h1v1h1v-1h1v-1h-2v-1h3v1h1v2h-1v3h1v1h-1v1h-3v1h-2v-3h-1v3h1v1h2v1h1v1h-2v-1h-2v-1h-2v-1h1v-1h-1v-1h1v-3h2v-1h-2v-1h2v-1h-2v1h-1zM22 17h1v1h-1zM1 18h2v1h-1v3h-1zM8 18h1v1h1v-1h1v2h-4v-1h1zM12 18h1v1h1v-1h3v2h-2v1h-4v-1h1zM17 20h1v1h-1zM6 21h2v1h-2zM9 21h2v1h-1v1h-1zM15 21h1v1h-1zM27 21h1v1h-1zM11 22h1v1h1v-1h1v2h-2v2h-1v1h-1v1h-1v-4h1v-1h1zM17 22h1v2h-1v2h-1v-1h-1v-1h1v-1h1zM22 22v3h3v-3zM29 22h1v1h-1zM1 23h7v7h-7zM23 23h1v1h-1zM27 23h2v3h1v1h-1v2h-1v-1h-1v-1h1v-1h-1v-1h1v-1h-1zM2 24v5h5v-5zM3 25h3v3h-3zM13 25h1v1h-1zM14 26h2v1h1v1h-1v1h-1v1h-1v-2h1v-1h-1zM17 26h1v1h-1zM11 27h1v1h-1zM13 27h1v1h-1zM23 27h3v1h-3zM10 28h1v1h-1zM12 28h1v1h-1zM26 28h1v1h-1zM9 29h1v1h-1zM16 29h1v1h-1zM18 29h1v1h-1zM25 29h1v1h-1zM27 29h1v1h-1z"/></svg>