<svg xmlns="http://www.w3.org/2000/svg" viewBox="0 0 31 31"><path d="M1 1h7v7h-7zM12 1h5v1h1v1h-1v2h1v1h-2v-1h-1v-1h1v-1h-1v1h-1v-2h-1v2h-1v-1h-2v-1h2zM19 1h3v2h-1v-1h-2zM23 1h7v7h-7zM2 2v5h5v-5zM24 2v5h5v-5zM3 3h3v3h-3zM9 3h1v1h2v1h-2v1h2v3h-3zM20 3h1v1h-1zM25 3h3v3h-3zM18 4h2v1h-2zM21 4h1v1h-1zM12 5h1v1h-1zM20 5h1v1h-1zM13 6h1v3h-1zM18 6h2v2h-1v-1h-1zM10 7v1h1v-1zM15 7h1v2h-1zM17 7h1v2h1v1h-2zM21 7h1v3h-1zM1 9h1v1h1v-1h5v1h-3v1h1v1h1v1h1v-1h-1v-1h1v-1h1v5h1v1h1v1h-2v-1h-2v-1h1v-1h-2v-1h-1v-1h-1v-1h-1v1h-1v2h1v1h-1v1h-1zM12 9h1v2h-1v1h-1v-2h1zM23 9h5v1h-2v1h1v2h-2v1h-1v-1h-1v1h-1v-4h1zM14 10h3v1h3v1h-3v2h1v1h-2v-1h-1v-1h1v-1h-1v1h-1v5h-1v1h-1v2h-1v1h1v2h-1v-1h-2v-1h-3v-1h4v-2h1v-2h2v-1h-2v-1h1v-1h1v-1h-1v-1h2zM20 10h1v1h-1zM28 10h2v1h-2zM23 11v1h1v-1zM3 12h1v2h-1zM20 12h1v1h-1zM29 12h1v1h-1zM10 13h1v1h-1zM18 13h1v1h-1zM27 13h1v1h-1zM5 14h1v1h-1zM19 14h3v1h-2v1h-1zM23 14h1v2h-2v-1h1zM25 14h1v1h-1zM29 14h1v1h-1zM4 15h1v1h-1zM26 15h1v1h-1zM28 15h1v1h1v1h-1v1h1v1h-2v-1h-1v1h-1v1h1v1h-1v2h3v3h1v1h-1v2h-1v-1h-2v1h-1v-1h-1v1h-1v1h-1v-1h-1v-1h2v-1h3v-1h-3v1h-3v1h-2v-1h1v-1h-1v-1h1v-3h2v-2h1v1h1v-1h2v-1h-2v-1h3v-1h2zM6 16h1v1h-1zM15 16h1v1h-1zM17 16h1v1h-1zM24 16h2v1h-2zM1 17h1v1h1v1h-1v3h-1zM3 17h3v2h-2v-1h-1zM7 17h1v1h-1zM18 17h1v1h2v1h-2v1h-1zM21 17h2v1h-2zM8 18h2v1h-1v1h-2v-1h1zM14 18h3v2h-2v1h-1zM3 19h1v1h-1zM22 19h1v1h-1zM27 19h1v1h-1zM17 20h1v1h-1zM19 20h1v1h-1zM3 21h2v1h-2zM12 21h1v1h-1zM15 21h1v1h-1zM27 21h1v1h-1zM13 22h1v3h-1zM17 22h1v2h-1v2h-1v-1h-1v-1h1v-1h1zM22 22v3h3v-3zM29 22h1v1h-1zM1 23h7v7h-7zM23 23h1v1h-1zM2 24v5h5v-5zM9 24h1v3h1v1h1v-1h2v-1h2v1h1v1h-2v1h-1v1h-2v-1h-2v-1h-1zM20 24v2h1v-2zM26 24v1h2v-1zM3 25h3v3h-3zM11 25h1v1h-1zM17 26h1v1h-1zM27 26v1h1v-1zM9 29h1v1h-1zM15 29h2v1h-2zM18 29h1v1h-1zM20 29h1v1h-1zM26 29h2v1h-2z"/></svg>