<svg xmlns="http://www.w3.org/2000/svg" viewBox="0 0 31 31"><path d="M1 1h7v7h-7zM9 1h3v1h1v1h1v3h1v1h-1v1h-1v-2h-3v-1h-1v-1h1v-1h-1zM14 1h3v1h-2v1h-1zM20 1h1v1h-1zM23 1h7v7h-7zM2 2v5h5v-5zM17 2h3v1h1v-1h1v2h-2v1h1v2h-1v-1h-1v-1h-1v-1h1v-1h-1v1h-1zM24 2v5h5v-5zM3 3h3v3h-3zM11 3v2h1v-2zM25 3h3v3h-3zM15 4h2v1h-1v1h-1zM17 5h1v3h1v-1h1v1h1v-1h1v2h-1v1h2v-1h1v1h2v1h2v-2h2v2h-1v2h-1v-1h-3v-1h-5v-1h-2v-1h-1v2h-2v1h-1v1h-2v-1h1v-2h-1v1h-2v-2h-1v-2h1v1h1v-1h1v1h1v1h2v1h1v-2h1v-1h-1v-1h1zM15 7h1v1h-1zM1 9h1v2h1v1h-2zM3 9h2v1h-2zM6 9h3v3h1v1h-2v-1h-1v-1h1v-1h-1v1h-2v-1h1zM26 9h1v1h-1zM4 11h1v1h2v1h-1v2h3v1h-3v1h-1v-3h-2v1h-1v3h-1v-5h3zM17 11h1v2h-1zM19 12h1v1h-1zM22 12h2v1h-1v1h1v-1h1v2h-4v1h-1v-2h1v-1h1zM7 13h1v1h-1zM11 13h1v2h-1zM15 13h2v1h-1v1h-1zM18 13h1v2h-1v2h-1v-1h-1v-1h1v-1h1zM27 13h1v1h2v3h-2v-1h1v-1h-1v1h-1zM9 14h1v1h-1zM10 15h1v1h-1zM12 15h3v1h-1v1h-1v1h-2v-1h1zM9 16h1v1h-1zM15 16h1v1h1v1h-1v1h1v1h1v-1h-1v-1h2v3h-1v2h1v1h-1v1h-1v-3h-3v-1h-1v-3h1v1h1zM21 16h2v1h-1v1h1v1h-2zM24 16h2v1h1v2h-1v-1h-1v1h1v8h-1v-1h-4v-2h-1v-1h1v-1h-1v1h-1v-2h1v-1h1v1h3zM3 17h1v1h-1zM6 17h2v1h-2zM19 17h1v1h-1zM2 18h1v1h-1zM5 18h1v1h-1zM8 18h1v1h3v2h1v1h-1v1h-1v-3h-1v3h1v1h-1v1h-1v-3h-2v-1h2v-1h-3v-1h2zM1 19h1v1h-1zM27 19h1v1h1v1h1v2h-1v-1h-2zM3 20h3v2h-1v-1h-1v1h-2v-1h1zM13 22h1v2h-2v-1h1zM22 22v3h3v-3zM1 23h7v7h-7zM15 23h1v2h-2v-1h1zM23 23h1v1h-1zM27 23h1v1h-1zM2 24v5h5v-5zM29 24h1v1h-1zM3 25h3v3h-3zM11 25h1v1h-1zM13 25h1v1h-1zM16 25h1v1h1v-1h2v1h-1v2h-2v-1h-1zM27 25h2v1h-1v2h-2v-1h1zM9 26h2v1h1v1h2v1h1v1h-6v-1h2v-1h-2zM12 26h1v1h-1zM14 26h1v1h-1zM20 26h1v1h-1zM29 26h1v2h-1zM22 27h1v2h-1v1h-1v-1h-1v-1h2zM24 28h1v2h-2v-1h1zM28 28h1v2h-1zM19 29h1v1h-1zM26 29h1v1h-1z"/></svg>