<svg xmlns="http://www.w3.org/2000/svg" viewBox="0 0 31 31"><path d="M1 1h7v7h-7zM11 1h6v1h1v1h-1v2h1v1h-2v-1h-1v-1h1v-1h-1v1h-1v-2h-3zM20 1h1v1h-1zM23 1h7v7h-7zM2 2v5h5v-5zM19 2h1v1h-1zM21 2h1v1h-1zM24 2v5h5v-5zM3 3h3v3h-3zM9 3h1v3h1v1h-1v2h-1zM12 3h1v1h1v5h-1v-2h-1v-1h-1v-2h1zM25 3h3v3h-3zM18 4h2v1h-2zM20 5h2v1h-2zM11 7h1v2h-1zM15 7h1v2h-1zM17 7h1v2h1v1h-2zM19 7h1v1h-1zM21 7h1v3h-1v-1h-1v-1h1zM1 9h1v1h-1zM3 9h5v1h-2v1h-1v-1h-2zM10 9h1v1h6v1h3v1h-3v2h1v1h-2v-1h-1v-1h1v-1h-1v1h-1v2h-2v-1h1v-2h1v-1h-1v1h-1v2h-3v-1h-1v-1h-2v-1h2v-1h1v2h2v-1h-1zM23 9h5v1h-2v2h1v1h-2v-1h-1v-1h1v-1h-1v1h-1zM2 10h1v1h-1zM20 10h1v1h-1zM28 10h2v1h-2zM1 11h1v1h-1zM3 11h2v1h1v2h-2v-1h-1v1h1v1h-2v3h3v3h1v1h-2v-1h-1v-2h-1v3h-1v-8h1v-2h1zM21 11h1v1h2v1h-2v1h-1zM27 11h1v1h-1zM29 12h1v1h-1zM7 13h1v1h-1zM18 13h1v1h-1zM24 13h1v1h-1zM27 13h1v1h-1zM8 14h1v1h-1zM19 14h2v1h-1v1h-1zM22 14h2v1h-2zM25 14h1v1h-1zM29 14h1v1h-1zM4 15h4v1h-2v1h-2zM10 15h1v1h2v1h-1v2h1v-1h4v2h-2v1h-1v-1h-1v1h1v1h-1v1h-1v-1h-1v-1h1v-1h-1v-1h-1v-1h-1v-2h1zM21 15h1v2h1v1h-2v-1h-1v-1h1zM26 15h1v1h-1zM28 15h1v1h1v1h-1v1h1v1h-2v-1h-1v1h1v1h-2v1h2v1h-2v3h2v-2h1v3h1v1h-1v2h-1v-3h-1v1h-1v-1h-5v-2h-1v2h1v2h1v1h-2v-1h-2v-1h1v-1h-1v-1h1v-3h2v-1h2v-1h2v-2h1v-1h2zM15 16h1v1h-1zM17 16h1v1h-1zM24 16h2v1h-1v1h-1zM7 17h1v1h-1zM18 17h1v1h2v1h-2v1h-1zM8 18h1v2h-2v-1h1zM23 18h1v1h-1zM21 19h1v1h-1zM9 20h2v1h-1v1h1v1h-2zM17 20h1v1h-1zM19 20h1v1h-1zM7 21h1v1h-1zM15 21h1v1h-1zM17 22h1v2h-1v2h-1v-1h-1v-1h1v-1h1zM22 22v3h3v-3zM29 22h1v1h-1zM1 23h7v7h-7zM11 23h1v2h1v1h1v1h-1v1h-1v1h1v1h-2v-3h1v-1h-1v1h-1v1h-1v-4h1v1h1zM23 23h1v1h-1zM2 24v5h5v-5zM3 25h3v3h-3zM15 26h1v1h1v1h-1v1h1v1h-3v-1h1zM17 26h1v1h-1zM22 27h4v1h-1v1h-1v-1h-2zM9 29h1v1h-1zM18 29h1v1h-1zM22 29h1v1h-1zM25 29h3v1h-3z"/></svg>