<svg xmlns="http://www.w3.org/2000/svg" viewBox="0 0 31 31"><path d="M1 1h7v7h-7zM10 1h2v1h-2zM14 1h3v1h1v1h-1v2h1v1h-2v-1h-1v-1h1v-1h-1v1h-1v1h-2v-1h1v-1h1zM20 1h1v1h-1zM23 1h7v7h-7zM2 2v5h5v-5zM19 2h1v1h-1zM21 2h1v2h-1zM24 2v5h5v-5zM3 3h3v3h-3zM9 3h2v1h-1v1h1v1h-1v2h1v-1h1v2h-3zM25 3h3v3h-3zM18 4h2v1h-2zM20 5h2v3h-1v-2h-1zM13 6h1v2h-1zM19 6h1v3h-1zM15 7h1v2h-1zM17 7h1v2h1v1h-2zM1 9h1v1h-1zM3 9h5v1h-1v1h-1v-1h-1v1h1v2h-1v1h-1v-1h-1v1h1v1h-1v1h-1v-1h-1v-1h1v-1h-1v-1h1v-1h1v1h1v-2h-1zM12 9h2v1h-1v1h-3v-1h2zM21 9h1v1h-1zM23 9h5v1h-2v2h1v1h-2v1h-1v-2h1v-2h-1v1h-1zM8 10h1v1h-1zM14 10h3v1h3v1h-3v2h1v1h-2v-1h-1v-1h1v-1h-1v1h-2v-2h1zM20 10h1v1h-1zM28 10h2v1h-2zM7 11h1v1h-1zM9 11h1v2h-1zM22 11h1v1h-1zM27 11h1v1h-1zM21 12h1v1h1v1h-2zM29 12h1v1h-1zM6 13h2v1h-2zM11 13h2v2h1v2h-2v-1h-1v-1h1v-1h-1zM18 13h1v1h-1zM27 13h1v1h-1zM8 14h2v3h-1v-2h-1zM19 14h2v1h-1v1h-1zM23 14h1v1h-1zM25 14h1v1h3v1h1v1h-1v1h1v1h-2v-1h-2v-1h2v-1h-2v1h-1v-1h-1v-1h1zM29 14h1v1h-1zM4 15h1v1h-1zM6 15h2v1h-2zM22 15h1v3h-1zM1 16h1v2h2v1h1v-1h2v1h-1v1h-1v1h-1v1h-1v-3h-1v3h-1zM3 16h1v1h-1zM15 16h1v1h-1zM17 16h1v1h-1zM20 16h1v1h-1zM4 17h1v1h-1zM7 17h2v2h-1v-1h-1zM11 17h1v2h-2v-1h1zM18 17h1v1h3v1h1v2h2v-1h-1v-1h-1v-1h3v3h2v1h-1v1h2v3h1v1h-1v2h-1v-2h-1v-1h-6v-2h-1v3h1v1h-3v-1h1v-1h-1v-1h1v-3h2v-1h1v-1h-1v-1h-2v1h-1zM14 18h3v2h-2v1h-1zM7 19h1v1h-1zM9 19h1v2h-1zM12 19h1v2h-2v-1h1zM27 19h1v1h-1zM17 20h1v1h-1zM19 20h1v1h-1zM6 21h3v1h-3zM10 21h1v1h-1zM13 21h1v5h-1v-2h-2v-2h2zM15 21h1v1h-1zM9 22h1v1h-1zM17 22h1v2h-1v2h-1v-1h-1v-1h1v-1h1zM22 22v3h3v-3zM29 22h1v1h-1zM1 23h7v7h-7zM23 23h1v1h-1zM2 24v5h5v-5zM9 24h2v2h1v2h1v1h-2v1h-2v-1h1v-1h-1zM26 24v1h2v-1zM3 25h3v3h-3zM14 26h2v1h-2zM17 26h1v1h-1zM13 27h1v1h-1zM16 27h1v1h-1zM22 27h4v2h-2v-1h-1v1h-2v-1h1zM14 28h2v1h1v1h-3zM18 29h1v1h-1zM20 29h1v1h-1zM23 29h1v1h-1zM26 29h2v1h-2z"/></svg>