<svg xmlns="http://www.w3.org/2000/svg" viewBox="0 0 31 31"><path d="M1 1h7v7h-7zM11 1h2v3h1v1h-1v2h-1v-1h-1v-1h1v-3h-1zM14 1h3v1h1v1h-1v2h1v1h-2v-1h-1v-1h1v-1h-1v1h-1zM18 1h1v1h-1zM20 1h1v1h-1zM23 1h7v7h-7zM2 2v5h5v-5zM19 2h1v3h-2v-1h1zM21 2h1v3h-1zM24 2v5h5v-5zM3 3h3v3h-3zM9 3h2v1h-1v5h-1zM25 3h3v3h-3zM20 5h1v1h-1zM18 6h2v2h-1v-1h-1zM11 7h1v1h1v-1h1v2h-3zM15 7h1v2h-1zM17 7h1v2h1v1h-2zM21 7h1v3h-1zM1 9h1v1h1v-1h5v1h-1v1h2v1h-2v1h-1v-2h-1v-1h-1v1h-1v1h-1v1h-1zM10 9h1v1h-1zM23 9h5v1h-2v2h-2v-1h-2v-1h1zM12 10h1v1h-1zM14 10h3v1h3v1h-3v2h1v1h-2v-1h-1v-1h1v-1h-1v1h-1v-1h-1v-1h1zM20 10h1v1h-1zM28 10h2v1h-2zM4 11h1v1h-1zM10 11h2v1h1v1h1v1h-1v1h-1v-2h-1v-1h-1zM27 11h1v1h-1zM9 12h1v1h-1zM21 12h2v1h-1v1h-1zM26 12h1v1h-1zM29 12h1v1h-1zM7 13h2v1h-2zM18 13h1v1h-1zM24 13h1v1h-1zM27 13h1v1h-1zM1 14h2v1h-2zM5 14h1v1h-1zM19 14h2v1h-1v1h-1zM22 14h2v1h-2zM25 14h2v1h-2zM29 14h1v1h-1zM4 15h1v1h-1zM6 15h3v1h-2v1h2v1h1v-1h1v1h1v-1h2v1h-1v1h-1v1h-2v-1h-1v3h-4v-1h1v-1h1v1h1v-1h-1v-1h1v-1h-2zM10 15h2v1h-2zM13 15h1v1h-1zM21 15h1v1h-1zM24 15h1v1h2v1h-2v1h-1v-1h-1v1h-2v-1h1v-1h2zM28 15h1v1h1v1h-1v1h1v1h-2v-1h-1v-1h1zM15 16h1v1h-1zM17 16h1v1h-1zM1 17h1v1h1v-1h1v1h1v1h1v1h-1v1h-1v1h-1v-3h-1v3h-1zM18 17h1v1h2v1h-2v1h-1zM14 18h3v2h-2v1h-1v2h-2v1h-1v-3h1v1h1v-1h-1v-1h2zM23 18h1v1h-1zM25 18h1v1h1v2h-1v2h3v3h1v1h-1v2h-1v-2h-1v-1h-4v1h-1v-1h-1v-2h-1v2h1v2h1v1h-2v-1h-2v-1h1v-1h-1v-1h1v-3h2v-1h4v-1h-1v-1h1zM21 19h2v1h-2zM17 20h1v1h-1zM19 20h1v1h-1zM15 21h1v1h-1zM27 21h1v1h-1zM9 22h1v1h-1zM17 22h1v2h-1v2h-1v-1h-1v-1h1v-1h1zM22 22v3h3v-3zM29 22h1v1h-1zM1 23h7v7h-7zM23 23h1v1h-1zM2 24v5h5v-5zM9 24h1v1h1v1h-1v1h2v1h-3zM12 24h2v2h2v1h-1v1h-1v-1h-2zM26 24v1h2v-1zM3 25h3v3h-3zM17 26h1v1h-1zM16 27h1v1h-1zM23 27h3v2h2v1h-6v-1h3v-1h-2zM12 28h2v2h-1v-1h-1zM9 29h1v1h-1zM11 29h1v1h-1zM16 29h1v1h-1zM18 29h1v1h-1z"/></svg>