<svg xmlns="http://www.w3.org/2000/svg" viewBox="0 0 31 31"><path d="M1 1h7v7h-7zM13 1h4v1h2v-1h3v1h-2v1h-3v2h1v1h-2v-1h-1v-1h1v-1h-1v1h-1v-1h-1v1h-1v1h-1v-1h-1v1h1v2h-1v2h-1v-6h3v-1h1zM23 1h7v7h-7zM2 2v5h5v-5zM24 2v5h5v-5zM3 3h3v3h-3zM20 3h1v1h-1zM25 3h3v3h-3zM18 4h1v1h-1zM12 5h1v1h-1zM19 5h3v1h-2v2h1v1h-2v-2h-1v-1h1zM11 7h1v2h-1zM13 7h1v2h-1zM15 7h1v2h-1zM17 7h1v2h1v1h-2zM21 7h1v1h-1zM1 9h1v1h-1zM3 9h5v1h-1v1h1v1h-2v-1h-1v-1h-2zM23 9h5v1h-2v1h2v1h-1v1h-2v-1h-1v-1h1v-1h-1v1h-1zM2 10h1v1h2v1h1v1h5v-2h2v1h-1v1h1v3h-1v-2h-2v1h-2v-1h-1v1h1v1h-1v1h-1v1h-2v-2h2v-2h-1v-1h-1v-1h-2zM9 10h1v1h-1zM13 10h4v1h3v1h-3v2h1v1h-2v-1h-1v-1h1v-1h-1v1h-2v-1h1v-1h-1zM20 10h2v1h-2zM28 10h2v1h-2zM22 11h1v3h-2v-1h-1v-1h2zM29 12h1v1h-1zM1 13h2v1h1v2h-1v-1h-1v-1h-1zM18 13h1v1h-1zM27 13h1v1h-1zM19 14h2v1h-1v1h-1zM23 14h4v1h-1v2h-1v-1h-1v-1h-1zM29 14h1v1h-1zM1 15h1v1h-1zM10 15h1v3h-1v1h-2v-1h-1v-1h1v-1h1v1h1zM21 15h2v1h-2zM27 15h2v1h1v1h-1v1h1v1h-2v-1h-2v-1h2v-1h-1zM13 16h1v1h-1zM15 16h1v1h-1zM17 16h1v1h-1zM2 17h1v1h1v1h-2v3h-1v-4h1zM18 17h1v1h2v1h-2v1h-1zM21 17h2v1h-2zM24 17h1v1h-1zM12 18h5v2h-2v1h-1v1h-1v-2h1v-1h-1v1h-1v1h-2v2h-1v-1h-4v-1h4v-1h2v-1h1zM23 18h1v1h-1zM25 18h1v2h1v1h-1v2h1v2h-1v1h-5v-2h-1v3h1v1h1v1h-2v-1h-2v-1h1v-1h-1v-1h1v-3h1v-1h2v-1h2v1h1v-1h-1v-1h1zM5 19h1v1h-1zM7 19h1v1h-1zM21 19h1v1h-1zM4 20h1v1h-1zM17 20h1v1h-1zM19 20h1v1h-1zM3 21h1v1h-1zM15 21h1v1h-1zM27 21h1v1h-1zM17 22h1v2h-1v2h-1v-1h-1v-1h1v-1h1zM22 22v3h3v-3zM29 22h1v1h-1zM1 23h7v7h-7zM13 23h1v3h-1v1h2v1h1v1h1v1h-2v-1h-1v-1h-2v-2h-2v1h1v1h-2v-4h2v1h2zM23 23h1v1h-1zM28 23h1v3h1v1h-1v2h-1v-3h-1v-1h1zM2 24v5h5v-5zM3 25h3v3h-3zM15 26h1v1h-1zM17 26h1v1h-1zM26 26h1v3h-1v-1h-4v-1h4zM16 27h1v1h-1zM11 28h1v1h1v1h-2zM9 29h1v1h-1zM18 29h1v1h-1zM22 29h1v1h-1zM25 29h1v1h-1zM27 29h1v1h-1z"/></svg>