<svg xmlns="http://www.w3.org/2000/svg" viewBox="0 0 31 31"><path d="M1 1h7v7h-7zM12 1h1v2h-1v1h1v-1h1v-2h3v1h2v1h-2v2h1v1h-2v-1h-1v-1h1v-1h-1v1h-1v2h-1v-1h-2v2h-1v2h-1v-6h1v1h1v-1h-1v-1h2zM20 1h1v1h-1zM23 1h7v7h-7zM2 2v5h5v-5zM24 2v5h5v-5zM3 3h3v3h-3zM19 3h3v2h-1v-1h-2zM25 3h3v3h-3zM18 4h1v1h-1zM19 5h2v1h-2zM18 6h1v1h-1zM21 6h1v2h-1zM11 7h1v1h-1zM13 7h1v1h-1zM15 7h1v2h-1zM17 7h1v2h1v1h-2zM19 7h1v1h1v1h-2zM1 9h1v1h1v1h-2zM3 9h5v1h-3v2h2v1h-3v-1h-1v-1h1v-1h-1zM10 9h1v1h-1zM13 9h1v1h3v1h3v1h-3v2h1v1h-2v-1h-1v-1h1v-1h-1v1h-1v-2h-1v2h-1v2h-1v-1h-1v-1h-1v-1h1v-1h1v-1h2zM21 9h1v1h-1zM23 9h5v1h-2v1h-1v1h-1v-1h-2v-1h1zM8 10h1v1h-1zM20 10h1v1h-1zM28 10h2v1h-2zM7 11h1v1h-1zM26 11h2v1h-1v1h-2v-1h1zM1 12h2v1h-2zM22 12h2v1h-1v1h-2v1h-1v1h-1v-2h1v-1h2zM29 12h1v1h-1zM7 13h2v1h-2zM18 13h1v1h-1zM24 13h1v1h-1zM27 13h1v1h-1zM3 14h1v1h-1zM6 14h1v1h-1zM9 14h1v1h1v1h-1v1h-1zM23 14h1v1h-1zM25 14h2v2h-1v-1h-1zM29 14h1v1h-1zM1 15h1v2h1v1h-1v4h-1zM4 15h1v1h2v1h2v2h-1v-1h-2v-1h-1v3h1v1h-1v1h-2v-1h1v-1h-1v-1h1zM7 15h1v1h-1zM12 15h1v1h1v2h3v2h-2v1h-1v-2h-1v-1h-2v-2h1zM21 15h2v3h-1v-2h-1zM28 15h1v1h1v1h-1v1h1v1h-2v-1h-1v1h-1v2h2v1h-1v1h-1v1h1v1h-1v1h-1v1h-1v-1h-1v1h-1v-1h-1v-1h-1v2h1v1h-3v-1h1v-1h-1v-1h1v-3h1v1h1v-2h1v-1h2v1h1v-1h-1v-1h1v-1h1v-1h2zM15 16h1v1h-1zM17 16h1v1h-1zM25 16h1v1h-1zM18 17h1v1h3v2h-1v-1h-2v1h-1zM24 17h1v1h-1zM23 18h1v1h-1zM7 19h1v1h-1zM9 19h3v2h2v1h-2v2h1v1h1v1h2v1h1v1h-4v-1h-1v1h1v1h-2v-1h-2v-4h1v2h1v-3h-2v-1h1v-1h-1v1h-2v-1h1v-1h1zM17 20h1v1h-1zM19 20h1v1h-1zM15 21h1v1h-1zM17 22h1v2h-1v2h-1v-1h-1v-1h1v-1h1zM22 22v3h3v-3zM29 22h1v1h-1zM1 23h7v7h-7zM13 23h1v1h-1zM23 23h1v1h-1zM28 23h1v3h1v1h-1v2h-1v-1h-3v-1h3v-1h-1v-1h1zM2 24v5h5v-5zM3 25h3v3h-3zM17 26h1v1h-1zM23 27h1v1h-1zM21 28h1v1h-1zM9 29h1v1h-1zM15 29h2v1h-2zM18 29h1v1h-1zM20 29h1v1h-1zM23 29h1v1h-1zM25 29h3v1h-3z"/></svg>