<svg xmlns="http://www.w3.org/2000/svg" viewBox="0 0 31 31"><path d="M1 1h7v7h-7zM12 1h1v1h-1zM14 1h3v1h1v1h-1v2h1v1h-2v-1h-1v-1h1v-1h-1v1h-1v-1h-1v-1h1zM19 1h3v1h-2v1h-1zM23 1h7v7h-7zM2 2v5h5v-5zM11 2h1v2h-1zM24 2v5h5v-5zM3 3h3v3h-3zM9 3h1v1h1v2h-1v2h1v2h2v-3h-1v-2h2v5h3v1h3v1h-3v2h1v1h-2v-1h-1v-1h1v-1h-1v1h-3v-1h1v-1h-2v1h-4v1h-1v-1h-3v1h1v1h3v1h3v1h-1v1h2v2h-1v-1h-5v1h-2v-1h1v-2h-2v-3h-1v-4h1v2h1v-2h5v1h-3v1h4v-1h1v-1h-1zM20 3h1v1h-1zM25 3h3v3h-3zM18 4h2v1h-2zM20 5h2v1h-2zM18 6h1v1h-1zM11 7h1v1h-1zM15 7h1v2h-1zM17 7h1v2h1v1h-2zM19 7h1v1h-1zM21 7h1v1h-1zM20 8h1v1h-1zM23 9h5v1h-1v1h-2v-1h-1v1h-1zM20 10h2v1h1v1h-1v2h-1v-1h-1v-1h1v-1h-1zM28 10h2v1h-2zM24 11h1v1h2v1h-2v1h-1zM27 11h1v1h-1zM29 12h1v1h-1zM7 13h2v1h-2zM10 13h2v3h-1v-2h-1zM18 13h1v1h-1zM27 13h1v1h-1zM19 14h2v1h-1v1h-1zM22 14h2v1h-2zM25 14h2v1h-2zM29 14h1v1h-1zM21 15h1v1h-1zM24 15h1v1h2v1h-2v1h-1v-1h-1v1h-2v-1h1v-1h2zM28 15h1v1h1v1h-1v1h1v1h-2v-1h-1v-1h1zM1 16h1v1h-1zM6 16v1h2v-1zM15 16h1v1h-1zM17 16h1v1h-1zM20 16h1v1h-1zM18 17h1v1h2v1h-2v1h-1zM1 18h1v4h-1zM13 18h4v2h-2v1h-1v-2h-1zM23 18h1v1h-1zM25 18h2v1h-1v2h2v1h-1v1h-1v1h1v1h-1v1h-1v1h-1v-1h-1v1h-1v-1h-1v-2h-1v3h1v1h1v1h-2v-1h-2v-1h1v-1h-1v-1h1v-3h2v-1h4v-1h-1v-1h1zM5 19h3v1h-1v1h1v-1h1v1h1v-1h1v2h-1v1h-1v-1h-3v-1h-3v-1h2zM11 19h2v1h-2zM21 19h2v1h-2zM27 19h1v1h-1zM17 20h1v1h-1zM19 20h2v1h-2zM12 21h2v1h-1v2h-2v1h-1v1h1v-1h3v1h2v1h1v1h-1v1h-1v1h-1v-3h-1v-1h-1v1h-2v1h-1v-4h1v-1h2zM15 21h1v1h-1zM17 22h1v2h-1v2h-1v-1h-1v-1h1v-1h1zM22 22v3h3v-3zM29 22h1v1h-1zM1 23h7v7h-7zM23 23h1v1h-1zM27 23h2v3h1v1h-1v2h-1v-3h-1v-1h1v-1h-1zM2 24v5h5v-5zM3 25h3v3h-3zM17 26h1v1h-1zM26 26h1v2h-1v1h-1v-2h1zM23 27h1v1h-1zM10 28h1v2h-2v-1h1zM12 28h1v1h-1zM16 29h1v1h-1zM18 29h1v1h-1zM22 29h2v1h-2zM26 29h2v1h-2z"/></svg>