<svg xmlns="http://www.w3.org/2000/svg" viewBox="0 0 31 31"><path d="M1 1h7v7h-7zM10 1h1v2h-1zM13 1h4v1h1v1h-1v2h1v1h-2v-1h-1v-1h1v-1h-1v1h-1v-1h-1v1h1v4h-1v-2h-1v-1h-1v1h-1v2h1v1h1v-1h1v1h1v1h-1v1h-5v-1h2v-1h-1v-6h1v1h1v-1h1v-1h1zM18 1h1v1h-1zM20 1h1v1h-1zM23 1h7v7h-7zM2 2v5h5v-5zM19 2h1v2h-1zM24 2v5h5v-5zM3 3h3v3h-3zM25 3h3v3h-3zM18 4h1v1h-1zM20 4h2v1h-1v1h-1v2h-1v-3h1zM11 6h1v2h-1zM15 7h1v2h-1zM17 7h1v2h1v1h-2zM21 7h1v3h-1v-1h-1v-1h1zM1 9h1v3h1v-1h1v4h-2v-2h-1zM3 9h5v1h-5zM23 9h5v1h-2v1h3v2h1v2h-1v-1h-2v-1h1v-1h-1v1h-3v-2h-2v-1h1zM14 10h3v1h3v1h-3v2h1v1h-2v-1h-1v-1h1v-1h-1v1h-1v2h-1v-2h-1v-1h2zM20 10h1v1h-1zM29 10h1v1h-1zM5 11h1v1h-1zM7 11h1v1h-1zM21 11h1v2h-1zM8 12h1v1h-1zM5 13h1v1h1v1h-2zM7 13h1v1h-1zM11 13h1v1h-1zM18 13h1v1h-1zM22 13h1v1h-1zM8 14h2v1h1v1h-2v-1h-1zM19 14h3v1h-2v1h-1zM23 14h4v1h-4zM1 15h1v1h1v2h-1v4h-1zM4 15h1v1h-1zM7 15h1v1h-1zM22 15h1v1h3v1h-1v1h-1v-1h-1v1h-2v-2h1zM28 15h1v1h1v1h-1v1h1v1h-2v-1h-1v2h-1v-1h-1v-1h1v-1h2zM5 16h1v2h-1zM11 16h2v2h-1v1h1v1h-1v1h-1v1h-1v-2h-1v2h-2v-1h1v-1h-1v-1h4zM15 16h1v1h-1zM17 16h1v1h-1zM7 17h2v1h-2zM18 17h1v1h2v1h-2v1h-1zM3 18h2v2h-2zM6 18h1v1h-1zM14 18h3v2h-2v1h-1v3h-1v2h1v1h-2v-1h-1v1h-1v1h-1v-4h1v-1h1v1h1v-1h1v-3h1zM23 18h1v1h-1zM21 19h2v2h2v-1h1v1h2v1h-2v3h2v-1h-1v-1h2v3h1v1h-1v2h-1v-1h-1v-1h1v-1h-3v1h-1v-1h-3v-2h-1v3h1v1h1v-1h2v1h-1v1h-3v-1h-2v-1h1v-1h-1v-1h1v-3h2v-1h1v-1h-1zM17 20h1v1h-1zM19 20h1v1h-1zM3 21h2v1h-2zM15 21h1v1h-1zM9 22h1v1h-1zM17 22h1v2h-1v2h-1v-1h-1v-1h1v-1h1zM22 22v3h3v-3zM29 22h1v1h-1zM1 23h7v7h-7zM23 23h1v1h-1zM2 24v5h5v-5zM3 25h3v3h-3zM15 26h1v1h1v1h-2zM17 26h1v1h-1zM25 27h1v1h-1zM11 28h3v1h1v1h-3v-1h-1zM9 29h1v1h-1zM16 29h1v1h-1zM18 29h1v1h-1zM25 29h3v1h-3z"/></svg>