<svg xmlns="http://www.w3.org/2000/svg" viewBox="0 0 31 31"><path d="M1 1h7v7h-7zM10 1h2v1h-1v4h-1v2h1v2h-1v-1h-1v-6h1zM13 1h4v1h1v1h-1v2h1v1h-2v-1h-1v-1h1v-1h-1v1h-1v-1h-1zM18 1h1v1h-1zM20 1h1v1h-1zM23 1h7v7h-7zM2 2v5h5v-5zM19 2h1v1h1v-1h1v3h-1v-1h-2zM24 2v5h5v-5zM3 3h3v3h-3zM12 3h1v1h-1zM25 3h3v3h-3zM18 4h1v1h-1zM13 5h1v3h-1zM19 5h2v1h-2zM11 6h1v2h-1zM21 6h1v2h-1zM15 7h1v2h-1zM17 7h1v2h1v1h-2zM19 7h1v1h-1zM12 8h1v2h-1zM1 9h1v1h-1zM3 9h5v1h-1v1h1v-1h1v2h-2v1h-1v1h-3v-1h-1v-2h1zM23 9h5v1h-2v1h3v2h1v2h-1v-1h-2v-1h1v-1h-1v1h-3v-2h1v-1h-1v1h-1zM5 10v1h-1v1h2v-2zM14 10h3v1h3v1h-3v2h1v1h-2v-1h-1v-1h1v-1h-1v1h-3v-1h-1v-1h2v1h1zM20 10h2v1h-2zM29 10h1v1h-1zM22 11h1v1h-1zM10 12h1v1h-1zM7 13h2v4h-1v-1h-1v-1h1v-1h-1zM18 13h1v1h-1zM21 13h2v1h-2zM1 14h1v1h-1zM6 14h1v1h-1zM19 14h2v1h-1v1h-1zM23 14h4v2h-1v1h-1v-1h-1v-1h-1zM2 15h1v3h-1v4h-1v-5h1zM5 15h1v1h1v1h1v1h-2v-1h-1v1h-1v-2h1zM10 15h4v1h-1v1h1v1h-1v2h1v-2h3v2h-2v1h-1v3h-1v-3h-2v-1h1v-1h-2v-1h2v-2h-1v1h-1zM21 15h1v1h-1zM28 15h1v1h1v1h-1v1h1v1h-2v-1h-1v1h-1v1h-2v-1h1v-1h1v-1h2zM15 16h1v1h-1zM17 16h1v1h-1zM23 16h1v1h-1zM18 17h1v1h3v1h-3v1h-1zM22 17h1v1h-1zM24 17h1v1h-1zM3 18h1v1h-1zM5 18h1v1h-1zM23 18h1v1h-1zM4 19h1v1h2v1h-1v1h-3v-1h1zM7 19h1v1h-1zM27 19h1v1h-1zM9 20h1v1h-1zM17 20h1v1h-1zM19 20h2v1h-2zM7 21h1v1h-1zM10 21h1v1h-1zM15 21h1v1h-1zM21 21h7v1h-1v3h-1v1h-1v1h-1v-1h-3v-1h-1v1h1v2h-3v-1h1v-1h-1v-1h1v-3h1v1h1zM9 22h1v1h-1zM11 22h1v1h-1zM17 22h1v2h-1v2h-1v-1h-1v-1h1v-1h1zM22 22v3h3v-3zM29 22h1v1h-1zM1 23h7v7h-7zM23 23h1v1h-1zM28 23h1v3h1v1h-1v2h-1v-3h-1v-1h1zM2 24v5h5v-5zM9 24h1v2h1v-1h1v-1h1v1h1v1h-1v1h1v1h-1v1h-1v-1h-3zM3 25h3v3h-3zM14 26h2v1h1v1h-1v1h-1v-2h-1zM17 26h1v1h-1zM26 26h1v1h-1zM22 27h2v1h-1v1h1v-1h1v1h3v1h-6v-1h-1v-1h1zM25 27h1v1h-1zM9 29h3v1h-3zM16 29h1v1h-1zM18 29h1v1h-1zM20 29h1v1h-1z"/></svg>