<svg xmlns="http://www.w3.org/2000/svg" viewBox="0 0 31 31"><path d="M1 1h7v7h-7zM12 1h5v1h2v1h-2v2h1v1h-2v-1h-1v-1h1v-1h-1v1h-1v-2h-1v1h-1v1h1v1h1v5h3v1h3v1h-3v2h1v1h-2v-1h-1v-1h1v-1h-1v1h-2v-1h-1v1h1v1h-2v-1h-2v-1h1v-1h1v-1h2v-1h-1v-1h1v-1h-1v-1h-1v1h-1v2h-1v-6h1v2h1v-3h1zM19 1h3v2h-1v-1h-2zM23 1h7v7h-7zM2 2v5h5v-5zM24 2v5h5v-5zM3 3h3v3h-3zM19 3h1v1h-1zM25 3h3v3h-3zM18 4h1v1h-1zM21 4h1v1h-1zM19 5h2v1h-2zM18 6h1v1h-1zM11 7h1v1h-1zM15 7h1v2h-1zM17 7h1v2h1v1h-2zM19 7h1v1h1v-1h1v2h-3zM1 9h1v1h-1zM3 9h5v1h-1v1h2v1h-3v-2h-1v1h-1v-1h-1zM10 9h1v1h-1zM23 9h5v1h-1v1h-1v2h-1v1h-1v-1h-1v1h-1v-2h-1v-1h-1v-1h2v1h1v1h1v-1h1v-1h-1v1h-1zM29 10h1v1h-1zM1 11h1v1h-1zM3 11h1v1h-1zM27 11h2v2h1v2h-1v-1h-3v-1h2v-1h-1zM2 12h1v2h1v-1h1v1h1v2h-2v-1h-1v1h1v3h2v-1h-1v-1h1v-1h1v1h1v-1h-1v-1h1v-1h-2v-1h3v1h2v1h3v3h-1v1h-1v-1h-1v-1h1v-1h-2v-1h-1v1h1v1h-1v3h-2v1h-1v-1h-2v1h1v1h-2v-5h-1v-1h-1v-1h1v-1h-1v-1h1zM5 12h1v1h-1zM20 12h1v1h-1zM18 13h1v1h-1zM19 14h3v1h-2v1h-1zM23 14h1v1h-1zM25 14h1v1h3v1h1v1h-1v1h1v1h-2v-1h-1v1h-4v-1h3v-1h2v-1h-2v1h-2v-1h1zM22 15h1v1h-1zM15 16h1v1h-1zM17 16h1v1h-1zM20 16h1v1h-1zM18 17h1v1h2v1h-2v1h-1zM21 17h2v1h-2zM1 18h1v4h-1zM7 18v1h1v-1zM14 18h3v2h-2v1h-1zM10 19h2v1h-1v2h-1v1h-1v-2h1zM17 20h1v1h-1zM19 20h2v1h-2zM22 20h2v1h1v-1h1v1h2v1h-1v1h-1v2h2v-2h1v3h1v1h-1v2h-1v-3h-1v1h-1v-1h-4v1h-1v-3h-1v4h-2v-1h1v-1h-1v-1h1v-3h2v-1h1zM7 21h1v1h-1zM13 21h1v1h-1zM15 21h1v1h-1zM12 22h1v1h-1zM17 22h1v2h-1v2h-1v-1h-1v-1h1v-1h1zM22 22v3h3v-3zM29 22h1v1h-1zM1 23h7v7h-7zM13 23h1v2h-1zM23 23h1v1h-1zM2 24v5h5v-5zM9 24h1v3h1v1h2v-2h3v1h1v1h-1v1h-1v1h-6v-1h1v-1h-1zM3 25h3v3h-3zM11 25h2v1h-1v1h-1zM17 26h1v1h-1zM14 27v1h1v-1zM22 27h4v1h1v1h-1v1h-1v-1h-1v-1h-1v1h-3v-1h2zM16 29h1v1h-1zM18 29h1v1h-1zM23 29h1v1h-1zM27 29h1v1h-1z"/></svg>