<svg xmlns="http://www.w3.org/2000/svg" viewBox="0 0 31 31"><path d="M1 1h7v7h-7zM10 1h1v1h-1zM12 1h1v2h-1zM14 1h3v1h1v1h-1v2h1v1h-2v-1h-1v-1h1v-1h-1v1h-1zM20 1h1v1h-1zM23 1h7v7h-7zM2 2v5h5v-5zM19 2h1v1h-1zM24 2v5h5v-5zM3 3h3v3h-3zM9 3h2v2h1v-1h2v1h-1v1h-1v3h-3zM25 3h3v3h-3zM18 4h2v1h-2zM21 4h1v1h-1zM20 5h1v1h-1zM10 6v2h1v-2zM19 6h1v3h-1zM21 6h1v4h-1zM13 7h1v3h3v1h3v1h-3v2h1v1h-2v-1h-1v-1h1v-1h-1v1h-1v-2h-2v1h-1v-1h-1v-1h2v-1h1zM15 7h1v2h-1zM17 7h1v2h1v1h-2zM1 9h1v2h-1zM3 9h5v1h-2v1h-1v1h2v1h-2v1h1v1h-1v2h-1v-2h-2v-2h1v1h1v-2h-2v-1h1zM23 9h5v2h-1v-1h-1v1h-1v-1h-1v1h-1zM8 10h1v1h-1zM20 10h1v1h-1zM29 10h1v1h-1zM7 11h1v1h-1zM9 11h1v1h1v1h-2zM21 11h1v1h-1zM26 11h1v1h-1zM28 11h1v2h1v2h-1v-1h-3v-1h2zM12 12h1v1h1v1h-2v1h1v3h-2v2h-2v1h1v2h-1v-1h-3v-1h2v-1h-1v-1h3v-2h2v-1h-2v-1h-2v-1h3v-1h1zM22 12h1v2h-2v-1h1zM24 12h2v1h-2zM7 13h1v1h-1zM18 13h1v1h-1zM19 14h2v1h-1v1h-1zM23 14h3v3h-1v1h-1v-2h1v-1h-1v1h-3v-1h2zM1 15h1v3h1v-1h1v2h-2v3h-1zM7 15h1v1h-1zM27 15h2v1h1v1h-1v1h1v1h-2v-1h-2v-1h2v-1h-1zM6 16h1v1h2v1h-4v-1h1zM9 16h1v1h-1zM15 16h1v1h-1zM17 16h1v1h-1zM18 17h1v1h3v2h-1v-1h-2v1h-1zM22 17h1v1h-1zM13 18h4v2h-2v1h-3v-1h2v-1h-1zM23 18h1v1h-1zM25 18h1v1h-1zM4 19h1v1h-1zM24 19h1v1h1v1h2v1h-2v1h1v2h-1v1h-1v1h-1v-1h-1v1h-1v-1h-1v-2h-1v2h1v1h-1v1h-2v-1h1v-1h-1v-1h1v-3h1v-1h3v-1h1zM26 19h2v1h-2zM3 20h1v1h-1zM5 20h1v1h-1zM17 20h1v1h-1zM19 20h1v1h-1zM11 21h1v1h-1zM15 21h1v1h-1zM12 22h2v4h-1v2h-1v-1h-1v-2h2v-1h-2v-1h1zM17 22h1v2h-1v2h-1v-1h-1v-1h1v-1h1zM22 22v3h3v-3zM29 22h1v1h-1zM1 23h7v7h-7zM23 23h1v1h-1zM28 23h1v3h1v1h-1v2h-1v-3h-1v-1h1zM2 24v5h5v-5zM9 24h2v1h-1v3h-1zM3 25h3v3h-3zM14 26h2v1h1v1h-2v-1h-1zM17 26h1v1h-1zM26 26h1v2h-2v-1h1zM21 27h1v1h1v-1h1v1h1v1h3v1h-4v-1h-4v-1h1zM14 28h1v1h-1zM9 29h2v1h-2zM12 29h1v1h-1zM15 29h2v1h-2zM18 29h1v1h-1z"/></svg>