<svg xmlns="http://www.w3.org/2000/svg" viewBox="0 0 31 31"><path d="M1 1h7v7h-7zM9 1h1v1h2v1h-3zM14 1h3v1h-2v1h-1zM20 1h1v1h-1zM23 1h7v7h-7zM2 2v5h5v-5zM17 2h2v1h-1v1h-1zM21 2h1v1h-1zM24 2v5h5v-5zM3 3h3v3h-3zM12 3h1v2h-1v1h-1v1h-1v-2h-1v-1h3zM19 3h2v1h-1v1h1v-1h1v4h-1v-1h-1v-1h-2v2h1v-1h1v2h2v1h-1v1h-1v-1h-2v-1h-1v2h-2v1h-1v-1h-1v1h-1v-1h-1v-1h-1v-1h-1v-2h1v1h1v-1h1v1h1v-1h-1v-1h1v-1h1v1h1v1h-1v2h-1v1h1v-1h1v1h1v-2h1v-1h-1v-1h1v-1h1v-1h1zM25 3h3v3h-3zM15 4h2v1h-1v1h-1zM15 7h1v1h-1zM1 9h1v1h-1zM3 9h2v1h1v-1h3v1h-2v1h1v1h-1v1h-1v-1h-1v-1h-3v-1h1zM23 9h1v2h-1zM26 9h1v1h-1zM28 9h2v2h-1v-1h-1zM9 10h1v1h-1zM25 10h1v1h1v-1h1v2h-1v1h2v-1h1v5h-2v-1h1v-1h-1v1h-2v-1h1v-1h-1v-2h-1v1h-2v-1h1v-1h1zM10 11h1v1h-1zM17 11h1v2h-1zM22 11h1v1h-1zM3 12h2v1h-2zM8 12h1v1h-1zM11 12h1v1h-1zM13 12h1v2h-1zM19 12h2v1h-2zM1 13h2v1h-1v1h2v-1h1v2h1v1h2v-1h-2v-2h1v1h1v-1h1v2h1v1h1v-1h1v1h2v1h-3v1h-1v-1h-5v-1h-1v-1h-3zM7 13h1v1h-1zM15 13h2v1h-1v1h-1zM18 13h1v2h-1v2h-1v-1h-1v-1h1v-1h1zM21 13h2v1h1v1h-2v1h-2v-2h1zM10 14h1v2h-1zM12 14h1v1h2v1h-3zM15 16h1v1h1v1h-1v1h1v1h1v-1h-1v-1h2v3h-1v2h1v1h-1v1h-1v-3h-3v-2h-2v-1h3zM24 16h2v1h1v2h1v1h1v1h1v2h-1v-1h-2v-2h-1v-2h-1v-1h-1zM19 17h1v1h-1zM21 17h1v1h1v1h-1v1h2v1h2v1h1v1h-1v1h1v1h2v1h-1v2h-2v-1h1v-1h-1v1h-1v-1h-3v1h1v1h2v1h-2v1h-2v-1h-1v-3h1v-1h-1v-2h-1v-2h1v1h1zM1 19h1v1h-1zM4 19h1v1h1v2h-2v-1h-1v-1h1zM7 19h1v1h-1zM24 19h1v1h-1zM8 20h4v2h-1v-1h-2v1h-2v-1h1zM2 21h1v1h-1zM9 22h1v1h1v1h1v2h-1v-1h-2zM13 22h1v1h-1zM22 22v3h3v-3zM1 23h7v7h-7zM15 23h1v2h-2v5h-5v-1h2v-1h-2v-2h2v1h1v-1h1v-2h2zM23 23h1v1h-1zM2 24v5h5v-5zM29 24h1v1h-1zM3 25h3v3h-3zM16 25h1v1h1v-1h2v1h-1v2h-2v-1h-1zM29 26h1v2h-1zM15 28h1v2h-1zM28 28h1v2h-1zM19 29h1v1h-1zM26 29h1v1h-1z"/></svg>