<svg xmlns="http://www.w3.org/2000/svg" viewBox="0 0 31 31"><path d="M1 1h7v7h-7zM9 1h1v2h-1zM11 1h2v3h-1v-2h-1zM14 1h3v1h-2v1h-1zM20 1h1v1h-1zM23 1h7v7h-7zM2 2v5h5v-5zM17 2h1v2h-1zM19 2h1v2h-1zM24 2v5h5v-5zM3 3h3v3h-3zM10 3h1v1h-1zM25 3h3v3h-3zM9 4h1v1h-1zM11 4h1v1h1v1h-2zM13 4h1v1h-1zM15 4h2v1h-1v1h-1zM18 4h1v3h-1v1h1v-1h1v1h1v1h1v1h-1v1h-1v-1h-2v-1h-1v2h-2v1h-1v3h-4v-1h-3v-1h3v-2h2v-2h-1v-2h1v1h1v3h1v-2h1v1h1v-2h1v-1h-1v-1h1v-1h1zM21 4h1v2h-1v1h-1v-2h1zM10 6h1v1h-1zM14 6h1v1h-1zM9 7h1v2h-1zM13 7h1v1h-1zM15 7h1v1h-1zM21 7h1v1h-1zM1 9h1v1h-1zM3 9h2v1h1v-1h3v1h1v1h-1v1h-4v-1h-1v-1h-1zM23 9h1v1h2v1h-1v1h-1v-1h-2v-1h1zM26 9h1v1h-1zM28 9h2v2h-1v-1h-1zM2 10h1v1h-1zM7 10v1h1v-1zM27 10h1v2h-1v1h1v-1h2v5h-2v-1h1v-1h-2v-1h-1v-3h1zM3 11h1v1h-1zM17 11h1v2h-1zM21 11h1v1h2v1h-1v1h1v-1h1v3h-5v-2h1v1h1v-2h-3v-1h2zM11 13v1h1v-1zM15 13h2v1h-1v1h-1zM18 13h1v2h-1v2h-1v-1h-1v-1h1v-1h1zM5 14h1v1h-1zM2 15h2v6h-1v-2h-1v-1h1v-1h-1zM7 15h2v2h-1v-1h-1zM14 15h1v1h-1zM26 15h1v2h-1v1h-1v-2h1zM5 16h2v1h-2zM11 16h2v1h-2zM15 16h1v1h1v1h-1v1h1v1h1v-1h-1v-1h2v3h-1v2h1v1h-1v1h-1v-3h-3v-2h-1v1h-1v1h-2v-3h-1v-1h1v-1h1v3h1v-1h3zM7 17h1v1h-1zM13 17h1v1h-1zM19 17h2v1h-2zM5 18h2v1h1v1h-1v1h1v1h-4v-1h2v-2h-1zM22 18h1v2h1v1h2v1h1v1h1v1h-1v1h2v1h-1v2h-1v1h-2v-1h1v-1h-1v-1h-4v-2h-1v-1h1v-1h-1v1h-1v-2h1v-1h1v-1h1zM26 18h1v2h-1zM1 19h1v1h-1zM24 19h1v1h-1zM8 20h1v1h-1zM27 20h2v1h1v2h-1v-1h-2zM2 21h1v1h-1zM9 22h1v3h-1zM12 22h1v1h1v1h-1v1h-1v-1h-1v-1h1zM22 22v3h3v-3zM1 23h7v7h-7zM15 23h1v2h-2v-1h1zM23 23h1v1h-1zM2 24v5h5v-5zM29 24h1v1h-1zM3 25h3v3h-3zM10 25h1v1h1v2h-1v-1h-1v1h-1v-2h1zM16 25h1v1h1v-1h2v1h-1v2h-2v-1h-1zM13 26h2v1h1v1h-1v2h-1v-2h-1zM29 26h1v2h-1zM22 27h1v1h-1zM20 28h2v1h1v1h-2v-1h-1zM28 28h1v2h-1zM9 29h2v1h-2zM19 29h1v1h-1z"/></svg>