<svg xmlns="http://www.w3.org/2000/svg" viewBox="0 0 31 31"><path d="M1 1h7v7h-7zM11 1h6v1h1v1h-1v2h1v-1h1v-2h1v1h1v1h-1v1h-1v1h-3v-1h-1v-1h1v-1h-1v1h-1v1h-2v-2h-2v-1h1zM18 1h1v1h-1zM20 1h1v1h-1zM23 1h7v7h-7zM2 2v5h5v-5zM13 2v1h1v-1zM24 2v5h5v-5zM3 3h3v3h-3zM9 3h1v2h1v2h-1v2h-1zM25 3h3v3h-3zM21 4h1v1h-1zM20 5h1v1h-1zM13 6h1v2h-1zM19 6h1v3h-1zM21 6h1v4h-1zM11 7h1v1h1v1h-2zM15 7h1v2h-1zM17 7h1v2h1v1h-2zM1 9h1v1h-1zM3 9h5v1h-1v1h1v-1h2v1h-1v1h-3v2h-1v-1h-1v-1h-3v-1h3v-1h-1zM10 9h1v1h-1zM13 9h1v1h3v1h3v1h-3v2h1v1h-2v-1h-1v-1h1v-1h-1v1h-3v-1h1v-1h-1v1h-2v-1h1v-1h2zM23 9h5v1h-1v1h-1v2h-1v1h-1v-1h-1v-1h2v-2h-1v1h-1zM20 10h1v1h-1zM29 10h1v1h-1zM22 11h1v1h-1zM28 11h1v1h1v1h-1v1h1v1h-3v-1h-1v-1h2zM21 12h1v1h-1zM1 13h1v1h-1zM7 13h1v1h-1zM9 13h1v1h-1zM18 13h1v1h-1zM4 14h1v1h-1zM6 14h1v1h1v1h-1v1h1v1h-2v-1h-2v-1h2zM8 14h1v1h-1zM10 14h1v1h-1zM19 14h5v1h-4v1h-1zM25 14h1v1h1v2h-2v-1h-1v-1h1zM1 15h2v2h-2zM9 15h1v2h-1zM11 15h3v1h-3zM15 16h1v1h-1zM17 16h1v1h-1zM20 16h1v1h-1zM22 16h2v1h-1v1h-1zM28 16h2v1h-1v1h1v1h-2v-1h-1v-1h1zM18 17h1v1h3v2h-1v-1h-2v1h-1zM24 17h1v1h-1zM1 18h1v4h-1zM5 18h1v1h2v-1h2v1h1v1h-6zM11 18h6v2h-2v1h-1v5h-1v-1h-2v-1h1v-1h-1v1h-1v-1h-1v-2h2v1h1v-1h-1v-1h2v-1h-2zM23 18h1v1h-1zM25 18h1v1h2v1h-1v1h-1v-1h-2v-1h1zM3 20h1v1h-1zM17 20h1v1h-1zM19 20h2v1h-2zM23 20h1v1h2v2h3v3h1v1h-1v2h-1v-2h-1v-1h-2v1h-1v-1h-3v-2h-1v3h1v1h1v-1h2v1h-1v1h-3v-1h-2v-1h1v-1h-1v-1h1v-3h2v-1h2zM7 21h1v1h-1zM15 21h1v1h-1zM27 21h1v1h-1zM17 22h1v2h-1v2h-1v-1h-1v-1h1v-1h1zM22 22v3h3v-3zM29 22h1v1h-1zM1 23h7v7h-7zM23 23h1v1h-1zM2 24v5h5v-5zM9 24h1v1h1v2h-1v1h-1zM26 24v1h2v-1zM3 25h3v3h-3zM14 26h2v1h-2zM17 26h1v1h-1zM13 27h1v2h-1zM16 27h1v1h-1zM25 27h1v2h2v1h-3v-1h-1v-1h1zM10 28h1v1h-1zM15 28h1v1h1v1h-3v-1h1zM9 29h1v1h-1zM18 29h1v1h-1z"/></svg>