<svg xmlns="http://www.w3.org/2000/svg" viewBox="0 0 31 31"><path d="M1 1h7v7h-7zM10 1h1v1h1v-1h5v1h2v1h-2v2h1v1h-2v-1h-1v-1h1v-1h-1v1h-1v4h-1v-1h-1v-1h-2v2h1v-1h1v2h-1v1h1v1h-3v-1h1v-1h-1v-6h1zM19 1h3v1h-3zM23 1h7v7h-7zM2 2v5h5v-5zM13 2v1h1v-1zM24 2v5h5v-5zM3 3h3v3h-3zM19 3h1v1h-1zM21 3h1v2h-1zM25 3h3v3h-3zM10 4v1h2v-1zM18 4h1v1h-1zM19 5h2v1h-1v2h-1zM21 6h1v2h-1zM15 7h1v2h-1zM17 7h1v2h1v1h-2zM1 9h1v1h1v-1h5v1h-4v1h1v2h-1v-1h-2v-1h-1zM12 9h1v1h-1zM21 9h1v1h-1zM23 9h5v1h-1v1h2v1h-3v1h-1v-3h-1v1h-1zM13 10h4v1h3v1h-3v2h1v1h-2v-1h-1v-1h1v-1h-1v1h-1v-2h-1zM20 10h1v1h-1zM29 10h1v1h-1zM7 11h2v1h2v1h-1v1h-1v2h-2v-1h1v-1h-1v-1h1v-1h-1zM12 11h1v1h-1zM22 11h1v1h-1zM6 12h1v1h-1zM23 12h1v1h-1zM29 12h1v1h-1zM1 13h1v2h-1zM5 13h1v1h-1zM12 13h2v1h-1v2h1v2h3v2h-2v1h-1v-2h-1v-2h-1v-1h-1v-1h-1v-1h2zM18 13h1v1h-1zM21 13h2v1h-2zM24 13h1v1h-1zM26 13h3v1h1v1h-2v-1h-2zM4 14h1v4h-1zM6 14h1v1h-1zM19 14h2v1h-1v1h-1zM23 14h1v1h1v-1h1v3h-1v-1h-2v2h-2v-1h1v-1h-1v-1h2zM1 16h1v1h1v1h-1v4h-1zM6 16h1v1h2v2h1v1h-3v-1h1v-1h-1v1h-1v3h-1v-1h-1v1h-1v-3h1v1h1v-2h1zM10 16h1v1h1v2h-2zM15 16h1v1h-1zM17 16h1v1h-1zM28 16h2v1h-1v1h1v1h-2v-1h-1v3h-1v3h1v1h-1v1h-1v1h-1v-1h-2v1h-2v1h-2v-1h1v-1h-1v-1h1v-3h1v1h1v-4h1v2h2v-1h2v-1h-1v-1h1v-1h2zM18 17h1v1h2v1h-2v1h-1zM24 17h1v1h-1zM23 18h1v1h-1zM11 20h2v1h-2zM17 20h1v1h-1zM19 20h1v1h-1zM7 21h1v1h-1zM10 21h1v1h-1zM13 21h1v1h-1zM15 21h1v1h-1zM27 21h1v1h-1zM9 22h1v1h-1zM11 22h1v1h2v2h-2v2h1v3h-2v-1h1v-1h-1v1h-1v-1h-1v-4h1v2h1zM17 22h1v2h-1v2h-1v-1h-1v-1h1v-1h1zM22 22v3h3v-3zM29 22h1v1h-1zM1 23h7v7h-7zM23 23h1v1h-1zM27 23h2v3h1v1h-1v2h-1v-1h-1v-1h1v-1h-1v-1h1v-1h-1zM2 24v5h5v-5zM3 25h3v3h-3zM20 25v1h1v-1zM13 26h3v1h1v1h-2v-1h-2zM17 26h1v1h-1zM26 26h1v1h-1zM22 27h2v1h-2zM25 27h1v1h1v1h-1v1h-2v-2h1zM20 28h2v1h-2zM9 29h1v1h-1zM15 29h2v1h-2zM18 29h1v1h-1zM27 29h1v1h-1z"/></svg>